<svg width="20" height="20" viewBox="0 0 20 20" fill="none" xmlns="http://www.w3.org/2000/svg">
<path d="M16.0666 0.182984C15.9494 0.0658192 15.7904 0 15.6247 0C15.459 0 15.3 0.0658192 15.1828 0.182984L13.1242 2.24164L17.7577 6.87519L19.8164 4.81778C19.8746 4.75973 19.9208 4.69076 19.9523 4.61483C19.9838 4.5389 20 4.45751 20 4.3753C20 4.29309 19.9838 4.2117 19.9523 4.13577C19.9208 4.05984 19.8746 3.99087 19.8164 3.93282L16.0666 0.182984ZM16.874 7.7589L12.2405 3.12535L4.11583 11.25H4.37457C4.54032 11.25 4.69928 11.3158 4.81649 11.433C4.93369 11.5503 4.99954 11.7092 4.99954 11.875V12.4999H5.62451C5.79026 12.4999 5.94923 12.5658 6.06643 12.683C6.18364 12.8002 6.24948 12.9592 6.24948 13.1249V13.7499H6.87446C7.04021 13.7499 7.19917 13.8157 7.31638 13.9329C7.43358 14.0501 7.49943 14.2091 7.49943 14.3749V14.9998H8.1244C8.29016 14.9998 8.44912 15.0657 8.56632 15.1829C8.68353 15.3001 8.74937 15.4591 8.74937 15.6248V15.8835L16.874 7.7589ZM7.53943 17.0935C7.51313 17.0236 7.49958 16.9495 7.49943 16.8748V16.2498H6.87446C6.7087 16.2498 6.54974 16.1839 6.43253 16.0667C6.31533 15.9495 6.24948 15.7906 6.24948 15.6248V14.9998H5.62451C5.45876 14.9998 5.29979 14.934 5.18259 14.8168C5.06538 14.6996 4.99954 14.5406 4.99954 14.3749V13.7499H4.37457C4.20881 13.7499 4.04985 13.684 3.93264 13.5668C3.81544 13.4496 3.74959 13.2907 3.74959 13.1249V12.4999H3.12462C3.0499 12.4998 2.97581 12.4863 2.90588 12.4599L2.68214 12.6824C2.62258 12.7424 2.57581 12.8139 2.54465 12.8924L0.0447556 19.1422C-0.000705712 19.2557 -0.0118346 19.3801 0.0127486 19.5C0.0373319 19.6198 0.0965462 19.7298 0.18305 19.8163C0.269555 19.9028 0.379545 19.962 0.499385 19.9866C0.619225 20.0112 0.743645 20.0001 0.85722 19.9546L7.10695 17.4547C7.18552 17.4236 7.25696 17.3768 7.31694 17.3172L7.53943 17.0947V17.0935Z" fill="#6A6A6A"/>
</svg>
