<svg width="26" height="28" viewBox="0 0 26 28" fill="none" xmlns="http://www.w3.org/2000/svg">
<path d="M10.1875 26.1875V19.6156C10.1875 19.1562 10.6563 18.6875 11.125 18.6875H14.875C15.3438 18.6875 15.8125 19.1562 15.8125 19.625V26.1875C15.8125 26.4361 15.9113 26.6746 16.0871 26.8504C16.2629 27.0262 16.5014 27.125 16.75 27.125H24.25C24.4986 27.125 24.7371 27.0262 24.9129 26.8504C25.0887 26.6746 25.1875 26.4361 25.1875 26.1875V13.0625C25.1877 12.9393 25.1637 12.8172 25.1167 12.7033C25.0697 12.5895 25.0008 12.4859 24.9137 12.3987L22.375 9.86184V3.68747C22.375 3.43883 22.2762 3.20037 22.1004 3.02455C21.9246 2.84874 21.6861 2.74997 21.4375 2.74997H19.5625C19.3139 2.74997 19.0754 2.84874 18.8996 3.02455C18.7238 3.20037 18.625 3.43883 18.625 3.68747V6.11184L13.6638 1.14872C13.5767 1.06141 13.4732 0.992143 13.3593 0.944881C13.2454 0.897619 13.1233 0.873291 13 0.873291C12.8767 0.873291 12.7546 0.897619 12.6407 0.944881C12.5268 0.992143 12.4233 1.06141 12.3363 1.14872L1.08625 12.3987C0.999248 12.4859 0.930289 12.5895 0.883317 12.7033C0.836345 12.8172 0.812281 12.9393 0.812501 13.0625V26.1875C0.812501 26.4361 0.911274 26.6746 1.08709 26.8504C1.2629 27.0262 1.50136 27.125 1.75 27.125H9.25C9.49864 27.125 9.7371 27.0262 9.91291 26.8504C10.0887 26.6746 10.1875 26.4361 10.1875 26.1875Z" fill="#D9D9D9"/>
</svg>
