<svg width="25" height="28" viewBox="0 0 25 28" fill="none" xmlns="http://www.w3.org/2000/svg">
<path d="M9.66273 26.1875V19.6156C9.66273 19.1562 10.136 18.6875 10.6093 18.6875H14.3955C14.8688 18.6875 15.3421 19.1562 15.3421 19.625V26.1875C15.3421 26.4361 15.4418 26.6746 15.6193 26.8504C15.7968 27.0262 16.0376 27.125 16.2886 27.125H23.8611C24.1121 27.125 24.3529 27.0262 24.5304 26.8504C24.7079 26.6746 24.8077 26.4361 24.8077 26.1875V13.0625C24.8079 12.9393 24.7836 12.8172 24.7362 12.7033C24.6887 12.5895 24.6191 12.4859 24.5313 12.3987L21.968 9.86184V3.68747C21.968 3.43883 21.8683 3.20037 21.6907 3.02455C21.5132 2.84874 21.2725 2.74997 21.0214 2.74997H19.1283C18.8773 2.74997 18.6365 2.84874 18.459 3.02455C18.2815 3.20037 18.1817 3.43883 18.1817 3.68747V6.11184L13.1726 1.14872C13.0846 1.06141 12.9802 0.992143 12.8652 0.944881C12.7502 0.897619 12.6269 0.873291 12.5024 0.873291C12.3779 0.873291 12.2546 0.897619 12.1396 0.944881C12.0246 0.992143 11.9202 1.06141 11.8322 1.14872L0.47354 12.3987C0.385696 12.4859 0.316071 12.5895 0.268645 12.7033C0.221219 12.8172 0.196923 12.9393 0.197145 13.0625V26.1875C0.197145 26.4361 0.296871 26.6746 0.474385 26.8504C0.6519 27.0262 0.89266 27.125 1.1437 27.125H8.71617C8.96721 27.125 9.20797 27.0262 9.38548 26.8504C9.563 26.6746 9.66273 26.4361 9.66273 26.1875Z" fill="#27BECE"/>
</svg>
