<svg width="17" height="17" viewBox="0 0 17 17" fill="none" xmlns="http://www.w3.org/2000/svg">
<path d="M0 8.24529C0 3.50743 3.71131 0 8.5 0C13.2887 0 17 3.50743 17 8.24529C17 12.9831 13.2887 16.4906 8.5 16.4906C7.63938 16.4906 6.81488 16.3769 6.03925 16.1644C5.88885 16.1225 5.72863 16.1338 5.58556 16.1963L3.89831 16.9422C3.79641 16.9871 3.68503 17.0063 3.57395 16.9982C3.46287 16.99 3.35551 16.9547 3.26128 16.8953C3.16706 16.8359 3.08887 16.7542 3.03358 16.6576C2.97829 16.5609 2.94759 16.4521 2.94419 16.3408L2.89744 14.8288C2.89421 14.7367 2.87229 14.6463 2.83302 14.563C2.79375 14.4797 2.73794 14.4053 2.669 14.3443C1.01575 12.8652 0 10.7231 0 8.24529ZM5.89262 6.69505L3.39575 10.6562C3.15669 11.0366 3.62313 11.4648 3.98119 11.1938L6.664 9.15801C6.75224 9.09099 6.8599 9.05453 6.97071 9.05414C7.08151 9.05376 7.18942 9.08947 7.27813 9.15588L9.26394 10.6456C9.40484 10.7512 9.5661 10.8266 9.73755 10.8668C9.90901 10.907 10.0869 10.9113 10.2601 10.8794C10.4333 10.8474 10.598 10.7799 10.7438 10.6812C10.8897 10.5824 11.0134 10.4545 11.1074 10.3055L13.6042 6.34441C13.8444 5.96402 13.3769 5.53582 13.0188 5.80677L10.336 7.84259C10.2478 7.90961 10.1401 7.94607 10.0293 7.94645C9.91849 7.94684 9.81057 7.91112 9.72187 7.84471L7.73606 6.35397C7.59516 6.24831 7.4339 6.17298 7.26245 6.13274C7.09099 6.0925 6.91306 6.08821 6.73987 6.12016C6.56667 6.1521 6.40198 6.21958 6.25616 6.31834C6.11034 6.41711 5.98656 6.54501 5.89262 6.69398V6.69505Z" fill="#6A6A6A"/>
</svg>
