<svg width="33" height="31" viewBox="0 0 33 31" fill="none" xmlns="http://www.w3.org/2000/svg">
<path d="M24.2322 22.5529C24.7592 22.5529 25.2646 22.3553 25.6372 22.0037C26.0099 21.6521 26.2192 21.1751 26.2192 20.6779V16.0991C26.2192 15.6018 26.0099 15.1249 25.6372 14.7733C25.2646 14.4216 24.7592 14.2241 24.2322 14.2241H21.4742C21.4742 13.566 21.5159 12.906 21.5974 12.2479C21.7206 11.5504 21.9272 10.9297 22.2134 10.3879C22.5015 9.84411 22.8711 9.41848 23.3241 9.10723C23.7752 8.75848 24.3494 8.58411 25.0488 8.58411V5.67786C23.8984 5.67786 22.8929 5.91036 22.0286 6.37536C21.1717 6.83564 20.435 7.4712 19.8726 8.23536C19.3082 9.07782 18.8921 10.001 18.6407 10.9691C18.3873 12.0374 18.2633 13.1294 18.2711 14.2241V20.6779C18.2711 21.1751 18.4804 21.6521 18.8531 22.0037C19.2257 22.3553 19.7311 22.5529 20.2581 22.5529H24.2322ZM12.31 22.5529C12.837 22.5529 13.3424 22.3553 13.715 22.0037C14.0877 21.6521 14.297 21.1751 14.297 20.6779V16.0991C14.297 15.6018 14.0877 15.1249 13.715 14.7733C13.3424 14.4216 12.837 14.2241 12.31 14.2241H9.55201C9.55201 13.566 9.59373 12.906 9.6752 12.2479C9.7984 11.5504 10.005 10.9297 10.2912 10.3879C10.5793 9.84411 10.9489 9.41848 11.4019 9.10723C11.853 8.75848 12.4272 8.58411 13.1267 8.58411V5.67786C11.9762 5.67786 10.9707 5.91036 10.1064 6.37536C9.24955 6.83564 8.51287 7.4712 7.95046 8.23536C7.386 9.07782 6.96995 10.001 6.7185 10.9691C6.46513 12.0374 6.34114 13.1294 6.34892 14.2241V20.6779C6.34892 21.1751 6.55826 21.6521 6.9309 22.0037C7.30354 22.3553 7.80895 22.5529 8.33594 22.5529H12.31Z" fill="#F26A25"/>
</svg>
