<svg width="31" height="30" viewBox="0 0 31 30" fill="none" xmlns="http://www.w3.org/2000/svg">
<path d="M22.0847 19.3935C23.9002 16.9158 24.7134 13.8439 24.3615 10.7923C24.0096 7.74072 22.5186 4.93455 20.1869 2.9352C17.8551 0.93585 14.8545 -0.109228 11.7854 0.00904609C8.71634 0.12732 5.80507 1.40022 3.63405 3.5731C1.46304 5.74597 0.1924 8.65856 0.0763389 11.7282C-0.0397227 14.7978 1.00735 17.798 3.00809 20.1287C5.00882 22.4593 7.81567 23.9485 10.8671 24.2983C13.9185 24.648 16.9894 23.8326 19.4655 22.015H19.4636C19.5198 22.0901 19.5798 22.1613 19.6473 22.2307L26.8658 29.4502C27.2174 29.8021 27.6943 29.9998 28.1917 30C28.689 30.0002 29.1661 29.8027 29.5179 29.4511C29.8697 29.0995 30.0675 28.6225 30.0676 28.1251C30.0678 27.6277 29.8704 27.1505 29.5188 26.7987L22.3003 19.5792C22.2333 19.5113 22.1612 19.4486 22.0847 19.3917V19.3935ZM22.5685 12.1853C22.5685 13.5397 22.3017 14.8808 21.7835 16.1321C21.2653 17.3834 20.5057 18.5204 19.5481 19.4781C18.5905 20.4358 17.4537 21.1955 16.2026 21.7138C14.9515 22.2321 13.6106 22.4988 12.2564 22.4988C10.9021 22.4988 9.5612 22.2321 8.31008 21.7138C7.05895 21.1955 5.92216 20.4358 4.96459 19.4781C4.00702 18.5204 3.24743 17.3834 2.7292 16.1321C2.21097 14.8808 1.94424 13.5397 1.94424 12.1853C1.94424 9.44996 3.03069 6.82666 4.96459 4.89249C6.89848 2.95832 9.52141 1.87172 12.2564 1.87172C14.9913 1.87172 17.6142 2.95832 19.5481 4.89249C21.482 6.82666 22.5685 9.44996 22.5685 12.1853V12.1853Z" fill="#6a6a6a"/>
</svg>
