<svg width="20" height="13" viewBox="0 0 20 13" fill="none" xmlns="http://www.w3.org/2000/svg">
<path fill-rule="evenodd" clip-rule="evenodd" d="M0 2.5C0 1.83696 0.263392 1.20107 0.732233 0.732233C1.20107 0.263392 1.83696 1.7314e-08 2.5 1.7314e-08H11.875C12.4814 -7.131e-05 13.0671 0.220241 13.5231 0.61991C13.9791 1.01958 14.2743 1.57136 14.3538 2.1725L18.2413 0.445C18.4315 0.360214 18.64 0.32433 18.8477 0.340607C19.0554 0.356884 19.2557 0.424808 19.4304 0.538203C19.6052 0.651599 19.7488 0.80687 19.8483 0.989905C19.9478 1.17294 19.9999 1.37793 20 1.58625V10.9137C19.9998 11.1219 19.9477 11.3267 19.8483 11.5096C19.7488 11.6925 19.6053 11.8477 19.4308 11.961C19.2562 12.0744 19.0561 12.1424 18.8486 12.1588C18.641 12.1752 18.4327 12.1395 18.2425 12.055L14.3538 10.3275C14.2743 10.9286 13.9791 11.4804 13.5231 11.8801C13.0671 12.2798 12.4814 12.5001 11.875 12.5H2.5C1.83696 12.5 1.20107 12.2366 0.732233 11.7678C0.263392 11.2989 0 10.663 0 10V2.5Z" fill="#424242"/>
</svg>
